<svg xmlns="http://www.w3.org/2000/svg" viewBox="0 0 2308.39 765.31"><defs><style>.cls-1,.cls-2{fill:#d1002c;}.cls-2{font-size:647px;font-family:ArialMT, Arial;letter-spacing:-0.03em;}.cls-3{letter-spacing:-0.09em;}</style></defs><title>uiactf</title><g id="Layer_3" data-name="Layer 3"><path class="cls-1" d="M800.5,68.5v8l90,225h2l9,21h2l75,186h31l-81-198s3-3-1-9a136.79,136.79,0,0,1,19.21-15.08A141.58,141.58,0,0,1,1006,265c2-.31,4.58-.68,7.68-1,0,0,2-.22,4-.38,3.52-.29,9.57-.54,35.84-1.11,20-2,30-4,31-4s-3-193,188-230c-14-5-18-15-64-16-8,1.5-12.76.75-20.15,1.75-17.42,2.37-29.85,9.23-35.85,12.25-7.37,3.72-14.17,8-16.5,9.5-4.89,3.11-8.3,5.55-9,6.07-6.16,4.31-19.41,9.5-50.46,13.43-22,0-37,1-53-4s-122-51-191,14a36.09,36.09,0,0,1-5-4l-7-18c-2-3-24-19-25,11Z" transform="translate(41 45.23)"/></g><g id="Layer_4" data-name="Layer 4"><text class="cls-2" transform="translate(0 555.23)">Ui<tspan class="cls-3" x="572.17" y="0">A</tspan><tspan x="948.6" y="0" xml:space="preserve"> CTF</tspan></text></g></svg>